<svg width="48" height="48" viewBox="0 0 48 48" fill="none" xmlns="http://www.w3.org/2000/svg">
<path d="M23.2095 16.2316C19.9265 16.232 16.6495 15.9509 13.4145 15.3913C13.3261 15.3759 13.2418 15.343 13.1662 15.2946C13.0907 15.2463 13.0256 15.1833 12.9746 15.1095C12.9237 15.0357 12.8879 14.9525 12.8695 14.8647C12.851 14.777 12.8502 14.6864 12.8671 14.5983L14.1174 7.86031C14.1513 7.68763 14.2513 7.53501 14.396 7.43489C14.5407 7.33476 14.7188 7.29503 14.8923 7.32415C20.6173 8.29692 26.4687 8.25728 32.18 7.207C33.8296 6.90189 35.4615 6.50784 37.0686 6.02655C37.2388 5.97736 37.4216 5.99703 37.5775 6.0813C37.7334 6.16557 37.85 6.30772 37.9021 6.47711L39.9679 13.0101C39.9953 13.0958 40.0054 13.186 39.9975 13.2755C39.9896 13.3651 39.9639 13.4522 39.922 13.5317C39.88 13.6112 39.8226 13.6815 39.7531 13.7386C39.6836 13.7956 39.6035 13.8383 39.5173 13.8639C37.5966 14.4397 35.6458 14.9098 33.6736 15.2719C30.2222 15.9109 26.7196 16.2321 23.2095 16.2316Z" fill="#005DFF"/>
<path d="M23.2095 29.426C19.1088 29.428 15.0158 29.0722 10.9769 28.3627C10.8883 28.3473 10.8037 28.3144 10.7281 28.2659C10.6524 28.2173 10.5871 28.1542 10.5361 28.0801C10.4852 28.0061 10.4495 27.9226 10.4312 27.8346C10.4128 27.7465 10.4123 27.6558 10.4295 27.5675L11.6933 20.8317C11.7272 20.6586 11.8275 20.5056 11.9727 20.4054C12.118 20.3052 12.2966 20.2658 12.4705 20.2956C19.5775 21.5278 26.8436 21.5278 33.9507 20.2956C34.1242 20.2665 34.3023 20.3062 34.447 20.4063C34.5917 20.5064 34.6917 20.6591 34.7256 20.8317L35.9894 27.5675C36.0067 27.6556 36.0062 27.7462 35.988 27.8341C35.9698 27.922 35.9343 28.0054 35.8836 28.0794C35.8328 28.1535 35.7678 28.2166 35.6924 28.2653C35.617 28.3139 35.5326 28.3471 35.4442 28.3627C31.4046 29.0722 27.3109 29.4279 23.2095 29.426Z" fill="#00A3FF"/>
<path d="M22.5267 42.6002C17.8431 42.5623 13.171 42.1313 8.55951 41.3116C8.47116 41.2962 8.38677 41.2633 8.31125 41.215C8.23574 41.1666 8.17061 41.1036 8.11966 41.0298C8.06871 40.956 8.03295 40.8728 8.01449 40.7851C7.99602 40.6973 7.9952 40.6067 8.01208 40.5187L9.26913 33.7829C9.30509 33.6132 9.40489 33.4639 9.54788 33.3658C9.69086 33.2677 9.8661 33.2283 10.0373 33.2557C14.1666 33.985 18.3494 34.37 22.5424 34.4069C22.6312 34.4069 22.7191 34.4244 22.8011 34.4583C22.8831 34.4923 22.9576 34.5421 23.0203 34.6048C23.0831 34.6676 23.1329 34.7421 23.1668 34.8241C23.2008 34.9061 23.2183 34.994 23.2183 35.0827V41.9357C23.2168 42.0248 23.1977 42.1128 23.1621 42.1945C23.1265 42.2762 23.0751 42.3501 23.0108 42.4119C22.9465 42.4737 22.8706 42.5221 22.7875 42.5544C22.7045 42.5867 22.6158 42.6023 22.5267 42.6002Z" fill="#21DDFF"/>
</svg>
